<mxfile host="app.diagrams.net" modified="2024-07-18T00:59:57.596Z" agent="Mozilla/5.0 (Windows NT 10.0; Win64; x64) AppleWebKit/537.36 (KHTML, like Gecko) Chrome/126.0.0.0 Safari/537.36" etag="KJciHaEAr7SiLL8JJMSu" version="24.7.1" type="google">
  <diagram name="PÃ¡gina-1" id="49GoDjj_Vvb_qa8R1PRN">
    <mxGraphModel dx="928" dy="722" grid="1" gridSize="10" guides="1" tooltips="1" connect="1" arrows="1" fold="1" page="1" pageScale="1" pageWidth="827" pageHeight="1169" math="0" shadow="0">
      <root>
        <mxCell id="0" />
        <mxCell id="1" parent="0" />
        <mxCell id="W-MBoxAtf8QLGLF6Nhlv-1" value="" style="rounded=0;whiteSpace=wrap;html=1;" parent="1" vertex="1">
          <mxGeometry x="40" y="40" width="560" height="640" as="geometry" />
        </mxCell>
        <mxCell id="W-MBoxAtf8QLGLF6Nhlv-3" value="HEAD" style="rounded=1;whiteSpace=wrap;html=1;" parent="1" vertex="1">
          <mxGeometry x="40" y="40" width="120" height="60" as="geometry" />
        </mxCell>
        <mxCell id="W-MBoxAtf8QLGLF6Nhlv-4" value="div" style="rounded=1;whiteSpace=wrap;html=1;" parent="1" vertex="1">
          <mxGeometry x="90" y="100" width="120" height="60" as="geometry" />
        </mxCell>
        <mxCell id="W-MBoxAtf8QLGLF6Nhlv-5" value="label" style="rounded=1;whiteSpace=wrap;html=1;" parent="1" vertex="1">
          <mxGeometry x="140" y="160" width="120" height="60" as="geometry" />
        </mxCell>
        <mxCell id="W-MBoxAtf8QLGLF6Nhlv-6" value="/div" style="rounded=1;whiteSpace=wrap;html=1;" parent="1" vertex="1">
          <mxGeometry x="90" y="340" width="120" height="60" as="geometry" />
        </mxCell>
        <mxCell id="W-MBoxAtf8QLGLF6Nhlv-7" value="/HEAD" style="rounded=1;whiteSpace=wrap;html=1;" parent="1" vertex="1">
          <mxGeometry x="40" y="400" width="120" height="60" as="geometry" />
        </mxCell>
        <mxCell id="W-MBoxAtf8QLGLF6Nhlv-8" value="&lt;h1 style=&quot;margin-top: 0px;&quot;&gt;DOM&lt;/h1&gt;&lt;div&gt;Modelo Documento&amp;nbsp;&lt;span style=&quot;background-color: initial;&quot;&gt;Objeto&lt;/span&gt;&lt;span style=&quot;background-color: initial;&quot;&gt;&amp;nbsp;&lt;/span&gt;&lt;/div&gt;" style="text;html=1;whiteSpace=wrap;overflow=hidden;rounded=0;" parent="1" vertex="1">
          <mxGeometry x="380" y="70" width="180" height="120" as="geometry" />
        </mxCell>
        <mxCell id="W-MBoxAtf8QLGLF6Nhlv-9" value="li" style="rounded=1;whiteSpace=wrap;html=1;fillColor=#f8cecc;strokeColor=#b85450;" parent="1" vertex="1">
          <mxGeometry x="180" y="220" width="120" height="60" as="geometry" />
        </mxCell>
        <mxCell id="W-MBoxAtf8QLGLF6Nhlv-10" value="&lt;h1 style=&quot;margin-top: 0px;&quot;&gt;Elemento&lt;/h1&gt;&lt;div&gt;Objeto HTML (label, input, a, div)&lt;/div&gt;" style="text;html=1;whiteSpace=wrap;overflow=hidden;rounded=0;" parent="1" vertex="1">
          <mxGeometry x="370" y="160" width="190" height="80" as="geometry" />
        </mxCell>
        <mxCell id="W-MBoxAtf8QLGLF6Nhlv-11" value="&lt;h1 style=&quot;margin-top: 0px;&quot;&gt;Fragmentos&lt;/h1&gt;&lt;div&gt;Conjunto de elementos agrupados por un delimitador&lt;/div&gt;" style="text;html=1;whiteSpace=wrap;overflow=hidden;rounded=0;" parent="1" vertex="1">
          <mxGeometry x="370" y="240" width="180" height="120" as="geometry" />
        </mxCell>
        <mxCell id="W-MBoxAtf8QLGLF6Nhlv-13" style="edgeStyle=orthogonalEdgeStyle;rounded=0;orthogonalLoop=1;jettySize=auto;html=1;" parent="1" source="W-MBoxAtf8QLGLF6Nhlv-12" edge="1">
          <mxGeometry relative="1" as="geometry">
            <mxPoint x="330" y="790" as="targetPoint" />
          </mxGeometry>
        </mxCell>
        <mxCell id="W-MBoxAtf8QLGLF6Nhlv-16" style="edgeStyle=orthogonalEdgeStyle;rounded=0;orthogonalLoop=1;jettySize=auto;html=1;" parent="1" source="W-MBoxAtf8QLGLF6Nhlv-12" target="W-MBoxAtf8QLGLF6Nhlv-15" edge="1">
          <mxGeometry relative="1" as="geometry" />
        </mxCell>
        <mxCell id="W-MBoxAtf8QLGLF6Nhlv-12" value="&lt;font style=&quot;font-size: 17px;&quot;&gt;nombre = XX2&lt;/font&gt;&lt;div style=&quot;font-size: 17px;&quot;&gt;&lt;font style=&quot;font-size: 17px;&quot;&gt;apellido&lt;/font&gt;&lt;/div&gt;&lt;div style=&quot;font-size: 17px;&quot;&gt;&lt;font style=&quot;font-size: 17px;&quot;&gt;telefono&lt;/font&gt;&lt;/div&gt;&lt;div style=&quot;font-size: 17px;&quot;&gt;&lt;font style=&quot;font-size: 17px;&quot;&gt;email&lt;/font&gt;&lt;/div&gt;&lt;div style=&quot;font-size: 17px;&quot;&gt;&lt;font style=&quot;font-size: 17px;&quot;&gt;direccion&lt;/font&gt;&lt;/div&gt;" style="rounded=1;whiteSpace=wrap;html=1;align=left;" parent="1" vertex="1">
          <mxGeometry x="50" y="730" width="120" height="120" as="geometry" />
        </mxCell>
        <mxCell id="W-MBoxAtf8QLGLF6Nhlv-14" value="nombre = XX2&lt;div&gt;apelllido&lt;/div&gt;&lt;div&gt;telefono&lt;/div&gt;&lt;div&gt;email&lt;/div&gt;&lt;div&gt;direccion&lt;/div&gt;&lt;div&gt;&lt;br&gt;&lt;/div&gt;" style="rounded=1;whiteSpace=wrap;html=1;fillColor=#f8cecc;strokeColor=#b85450;align=left;" parent="1" vertex="1">
          <mxGeometry x="330" y="750" width="120" height="160" as="geometry" />
        </mxCell>
        <mxCell id="W-MBoxAtf8QLGLF6Nhlv-15" value="nombre = XX1&lt;div&gt;apellido&lt;/div&gt;&lt;div&gt;telefono&lt;/div&gt;&lt;div&gt;email&lt;/div&gt;&lt;div&gt;direccion&lt;/div&gt;&lt;div&gt;&lt;br&gt;&lt;/div&gt;" style="rounded=1;whiteSpace=wrap;html=1;fillColor=#d5e8d4;strokeColor=#82b366;" parent="1" vertex="1">
          <mxGeometry x="50" y="930" width="120" height="190" as="geometry" />
        </mxCell>
        <mxCell id="W-MBoxAtf8QLGLF6Nhlv-17" value="&lt;h1 style=&quot;margin-top: 0px;&quot;&gt;&lt;font style=&quot;font-size: 24px;&quot;&gt;...&lt;/font&gt;&lt;/h1&gt;&lt;div style=&quot;font-size: 24px;&quot;&gt;&lt;font style=&quot;font-size: 24px;&quot;&gt;Propagacion&lt;/font&gt;&lt;/div&gt;&lt;div style=&quot;font-size: 24px;&quot;&gt;&lt;font style=&quot;font-size: 24px;&quot;&gt;&lt;br&gt;&lt;/font&gt;&lt;/div&gt;&lt;div style=&quot;font-size: 24px;&quot;&gt;&lt;font style=&quot;font-size: 24px;&quot;&gt;A1 = {...Aoriginal}&lt;/font&gt;&lt;/div&gt;" style="text;html=1;whiteSpace=wrap;overflow=hidden;rounded=0;" parent="1" vertex="1">
          <mxGeometry x="200" y="940" width="330" height="160" as="geometry" />
        </mxCell>
        <mxCell id="W-MBoxAtf8QLGLF6Nhlv-21" style="edgeStyle=orthogonalEdgeStyle;rounded=0;orthogonalLoop=1;jettySize=auto;html=1;entryX=0;entryY=0.5;entryDx=0;entryDy=0;" parent="1" source="W-MBoxAtf8QLGLF6Nhlv-18" target="W-MBoxAtf8QLGLF6Nhlv-19" edge="1">
          <mxGeometry relative="1" as="geometry" />
        </mxCell>
        <mxCell id="W-MBoxAtf8QLGLF6Nhlv-22" style="edgeStyle=orthogonalEdgeStyle;rounded=0;orthogonalLoop=1;jettySize=auto;html=1;" parent="1" source="W-MBoxAtf8QLGLF6Nhlv-18" target="W-MBoxAtf8QLGLF6Nhlv-20" edge="1">
          <mxGeometry relative="1" as="geometry" />
        </mxCell>
        <mxCell id="W-MBoxAtf8QLGLF6Nhlv-18" value="" style="shape=process;whiteSpace=wrap;html=1;backgroundOutline=1;" parent="1" vertex="1">
          <mxGeometry x="150" y="1260" width="120" height="60" as="geometry" />
        </mxCell>
        <mxCell id="W-MBoxAtf8QLGLF6Nhlv-19" value="" style="ellipse;whiteSpace=wrap;html=1;aspect=fixed;" parent="1" vertex="1">
          <mxGeometry x="360" y="1169" width="80" height="80" as="geometry" />
        </mxCell>
        <mxCell id="W-MBoxAtf8QLGLF6Nhlv-20" value="" style="triangle;whiteSpace=wrap;html=1;" parent="1" vertex="1">
          <mxGeometry x="380" y="1320" width="60" height="80" as="geometry" />
        </mxCell>
        <mxCell id="W-MBoxAtf8QLGLF6Nhlv-23" value="valorBusqueda" style="rounded=0;whiteSpace=wrap;html=1;" parent="1" vertex="1">
          <mxGeometry x="50" y="1640" width="120" height="60" as="geometry" />
        </mxCell>
        <mxCell id="W-MBoxAtf8QLGLF6Nhlv-24" value="if(valorBusqueda)" style="rounded=0;whiteSpace=wrap;html=1;" parent="1" vertex="1">
          <mxGeometry x="270" y="1720" width="120" height="60" as="geometry" />
        </mxCell>
        <mxCell id="W-MBoxAtf8QLGLF6Nhlv-25" style="edgeStyle=orthogonalEdgeStyle;rounded=0;orthogonalLoop=1;jettySize=auto;html=1;entryX=1.006;entryY=0.375;entryDx=0;entryDy=0;entryPerimeter=0;" parent="1" source="W-MBoxAtf8QLGLF6Nhlv-24" target="W-MBoxAtf8QLGLF6Nhlv-23" edge="1">
          <mxGeometry relative="1" as="geometry" />
        </mxCell>
        <mxCell id="W-MBoxAtf8QLGLF6Nhlv-26" value="li" style="rounded=1;whiteSpace=wrap;html=1;fillColor=#f8cecc;strokeColor=#b85450;" parent="1" vertex="1">
          <mxGeometry x="180" y="280" width="120" height="60" as="geometry" />
        </mxCell>
      </root>
    </mxGraphModel>
  </diagram>
</mxfile>
